# xmcd
#
# Track frame offsets:
#	150
#	7577
#	19357
#	36387
#	49890
#	60338
#	77003
#	94256
#	100247
#	112526
#	124053
#	139859
#	146948
#	154373
#	163693
#	172983
#	181029
#	193932
#	203669
#	218222
#	231876
#	240859
# Disc length: 3343 seconds
# Revision: 1
# Processed by: cddbd v1.5.1PL2 Copyright (c) Steve Scherf et al.
#
# Submitted via: libkcddb 0.31
#
DISCID=230d0d16
DTITLE=Jacek Kowalski i zespół Monogramista JK - Serce i Rozum
DYEAR=2003
DGENRE=Sarmacja
TTITLE0=Poetyka według Wacława Potockiego przez Jacka Kowalskiego
TTITLE1=Psalm rodowodowy
TTITLE2=Dlaczego Pan Tadeusz?
TTITLE3=Skrzetuski Wielkopolanin
TTITLE4=Postrzał w gnieźnieńskiej potrzebie
TTITLE5=Diana
TTITLE6=Pieśń o bitwie pod Mozgawą
TTITLE7=Do przyjaciela. Parafraza ody Horacego.
TTITLE8=Nagrobek mojemu Dziadkowi, Panu Stanisławowi Michałowskiemu
TTITLE9=Impreza z czasów heroicznych
TTITLE10=Iluminacja noworoczna na dworze księcia Karola Orleańskiego
TTITLE11=Straszna Baba
TTITLE12=Lancelot i Ginewra
TTITLE13=Bertrana de Born pochwała wojny. Parafraza pieśni tegoż trubadura.
TTITLE14=Pieśń o Goffredzie z Bulionu
TTITLE15=Pieśń Dawida na pustyni
TTITLE16=Pieśń nad Pieśniami
TTITLE17=Tomasz i Albert: historyjka hagiograficzna
TTITLE18=Dysputa poważna pomiędzy Ojcem z Zakonu Kaznodziejskiego a braciszkiem od Braci Mniejszych
TTITLE19=O tej muzyce. Piosenka z cytatem.
TTITLE20=Berestecką potrzebę Apollo śpiewa
TTITLE21=Serce i rozum
EXTD=Live
EXTT0=
EXTT1=
EXTT2=
EXTT3=
EXTT4=
EXTT5=
EXTT6=
EXTT7=
EXTT8=
EXTT9=
EXTT10=
EXTT11=
EXTT12=
EXTT13=
EXTT14=
EXTT15=
EXTT16=
EXTT17=
EXTT18=
EXTT19=
EXTT20=
EXTT21=
PLAYORDER=
